<?xml version="1.0" standalone="no"?><!DOCTYPE svg PUBLIC "-//W3C//DTD SVG 1.1//EN" "http://www.w3.org/Graphics/SVG/1.1/DTD/svg11.dtd"><svg t="1708582718724" class="icon" viewBox="0 0 1024 1024" version="1.1" xmlns="http://www.w3.org/2000/svg" p-id="5227" xmlns:xlink="http://www.w3.org/1999/xlink" width="200" height="200"><path d="M878.4 944.9H147.6c-38.4 0-69.6-31.2-69.6-69.6V145.6c0-39 31.8-70.8 70.8-70.8H878c38.6 0 70 31.4 70 70v730.4c0 38.4-31.2 69.7-69.6 69.7zM148.7 114.8c-17 0-30.8 13.8-30.8 30.8v729.6c0 16.3 13.3 29.6 29.6 29.6h730.8c16.3 0 29.6-13.3 29.6-29.6V144.8c0-16.5-13.5-30-30-30H148.7z" fill="#4C6070" p-id="5228"></path><path d="M192.3 191.6H831v638.7H192.3z" fill="#FFBD5C" p-id="5229"></path><path d="M155 297.7h74V447h-74z m0 277.5h74v149.3h-74z" fill="#FFFFFF" p-id="5230"></path><path d="M816.4 168.7H210.9c-21.6 0-39 17.5-39 39v64.1h-17.1c-10.5 0-19 8.5-19 19v158.1c0 10.5 8.5 19 19 19h17.1v83.9h-17.1c-10.5 0-19 8.5-19 19v158.1c0 10.5 8.5 19 19 19h17.1v65.7c0 20.6 16.7 37.4 37.4 37.4h607.5c20.6 0 37.4-16.7 37.4-37.4V206.5c-0.1-20.9-17-37.8-37.8-37.8zM165.8 433.9V305.8c0-2.2 1.8-4 4-4h45.1c2.2 0 4 1.8 4 4v128.1c0 2.2-1.8 4-4 4h-45.1c-2.2 0-4-1.8-4-4z m0 280V585.8c0-2.2 1.8-4 4-4h45.1c2.2 0 4 1.8 4 4v128.1c0 2.2-1.8 4-4 4h-45.1c-2.2 0-4-1.8-4-4zM814.1 811H211.8v-63.1h17.7c10.5 0 19-8.5 19-19V570.8c0-10.5-8.5-19-19-19h-17.7v-83.9h17.7c10.5 0 19-8.5 19-19V290.8c0-10.5-8.5-19-19-19h-17.7v-63.1h602.3V811z" fill="#4C6070" p-id="5231"></path><path d="M458.8 511.1a127.8 127.8 0 1 0 255.6 0 127.8 127.8 0 1 0-255.6 0z" fill="#FFFFFF" p-id="5232"></path><path d="M535.9 511.1a50.7 50.7 0 1 0 101.4 0 50.7 50.7 0 1 0-101.4 0z" fill="#FFBD5C" p-id="5233"></path><path d="M773.2 588.6l-34.6-20c7.5-18.1 11.7-38 11.7-58.8 0-20.8-4.2-40.7-11.7-58.8l34.6-20c9.6-5.5 12.8-17.8 7.3-27.3-5.5-9.6-17.8-12.8-27.3-7.3l-34.6 20c-24.2-31.5-60.4-53.4-101.7-58.8v-39.9c0-11-9-20-20-20s-20 9-20 20v39.9c-41.3 5.4-77.5 27.3-101.7 58.8l-34.6-20c-9.6-5.5-21.8-2.2-27.3 7.3-5.5 9.6-2.2 21.8 7.3 27.3l34.6 20c-7.5 18.1-11.7 38-11.7 58.8 0 20.8 4.2 40.7 11.7 58.8l-34.6 20c-9.6 5.5-12.8 17.8-7.3 27.3 3.7 6.4 10.4 10 17.3 10 3.4 0 6.8-0.9 10-2.7l34.6-20c24.2 31.5 60.4 53.4 101.7 58.8v40c0 11 9 20 20 20s20-9 20-20v-39.9c41.3-5.4 77.5-27.3 101.7-58.8l34.6 20c3.1 1.8 6.6 2.7 10 2.7 6.9 0 13.6-3.6 17.3-10 5.5-9.7 2.3-21.9-7.3-27.4z m-176.4 35.7c-63.2 0-114.4-51.2-114.4-114.4s51.2-114.4 114.4-114.4 114.4 51.2 114.4 114.4S660 624.3 596.8 624.3z" fill="#4C6070" p-id="5234"></path><path d="M596.4 592.3c-45.5 0-82.5-37-82.5-82.5s37-82.5 82.5-82.5 82.5 37 82.5 82.5-37.1 82.5-82.5 82.5z m0-124.9c-23.4 0-42.5 19-42.5 42.5 0 23.4 19 42.5 42.5 42.5s42.5-19 42.5-42.5c-0.1-23.5-19.1-42.5-42.5-42.5z" fill="#4C6070" p-id="5235"></path></svg>